<svg width="1731" height="70" viewBox="0 0 1731 70" fill="none" xmlns="http://www.w3.org/2000/svg">
<rect width="1731" height="70" rx="10" fill="#57A8F1"/>
<g clip-path="url(#clip0_8_42)">
<path d="M0 40H1731V50C1731 61.0457 1722.05 70 1711 70H20C8.95428 70 0 61.0457 0 50V40Z" fill="#2C6295"/>
<path d="M181.329 44.5001C182.471 45.0563 183.602 45.6234 184.719 46.2023C185.257 46.2821 185.796 46.3618 186.35 46.4439C192.273 47.5419 196.239 52.683 199.503 55.912C201.366 57.7311 203.026 59.2659 205.902 60.3877C207.755 60.2326 209.172 59.8548 210.88 59.3593C212.681 59.2529 212.681 59.2529 215.117 60.3522C217.571 61.689 217.571 61.689 220.168 61.4383C223.765 61.5513 225.057 62.4611 227.721 64.0404C231.986 66.6231 231.986 66.6231 237.366 67.3762C238.048 67.4 238.731 67.4238 239.435 67.4482C240.504 67.4817 240.504 67.4817 241.596 67.5158C242.676 67.5526 242.676 67.5526 243.777 67.5901C245.557 67.6503 247.336 67.7075 249.116 67.7641C249.116 69.2621 249.116 70.76 249.116 72.3034C248.651 72.2767 248.187 72.2499 247.708 72.2224C238.038 71.4896 238.038 71.4896 229.147 73.4405C226.764 74.812 226.764 74.812 224.788 76.293C222.297 77.7279 220.962 77.5224 217.765 77.4101C216.065 78.1614 214.37 78.9176 212.681 79.6798C210.719 79.5639 209.475 79.1697 207.703 78.6159C205.117 78.5141 203.998 79.4338 202.121 80.5223C200.083 81.8669 198.609 83.3951 197.058 84.9993C191.007 91.0457 191.007 91.0457 187.261 92.7303C184.348 92.9786 184.348 92.9786 182.177 92.7303C181.338 93.8538 181.338 93.8538 180.482 95C177.105 94.8687 175.716 94.6409 173.256 93.0318C171.896 91.8858 170.537 90.7392 169.179 89.5918C166.413 87.8729 164.722 87.6674 160.993 87.6236C160.294 87.9162 159.595 88.2088 158.875 88.5102C156.757 89.3259 156.757 89.3259 153.95 89.184C150.179 88.3221 148.138 86.28 145.662 84.29C142.878 82.212 140.061 81.5292 136.05 80.9919C131.799 79.9431 129.856 78.0395 127.1 75.7079C124.207 73.3469 124.207 73.3469 119.951 72.5871C116.937 72.7609 116.937 72.7609 114.496 73.6865C111.971 74.5318 110.756 74.6994 108.035 74.8213C103.602 75.0849 100.781 76.1211 97.8471 78.4231C97.4168 78.7793 96.9864 79.1355 96.543 79.5025C94.9864 80.7636 94.2821 81.3194 91.9886 81.9495C89.8173 81.9495 89.8173 81.9495 86.8517 81.5239C83.7722 81.1454 83.7722 81.1454 81.6088 82.6587C80.6388 83.4311 80.6388 83.4311 79.6493 84.2191C77.4299 85.6558 76.4741 85.9031 73.3473 86.1696C69.8735 85.8839 68.5055 85.3169 66.092 83.6517C66.092 83.2772 66.092 82.9027 66.092 82.5169C63.7392 81.6597 61.6531 81.225 59.0485 80.8501C54.3264 79.8548 52.8849 77.6736 50.5057 74.9211C48.7173 72.9717 47.2461 72.0217 44.0613 71.1686C40.0225 70.9928 37.2447 71.3439 33.9463 72.9418C30.5734 74.3246 28.6486 73.994 24.854 73.5978C22.7862 73.3531 22.7862 73.3531 20.4419 73.8283C19.5506 73.9161 19.5506 73.9161 18.6413 74.0057C16.8407 72.9418 16.8407 72.9418 15.252 71.736C12.2348 71.0625 9.34328 70.9694 6.19612 70.8494C5.60139 70.8249 5.00665 70.8004 4.39389 70.7752C2.92944 70.7151 1.46474 70.6579 0 70.6012C0 69.8522 0 69.1032 0 68.3315C0.868351 68.3103 1.7367 68.2891 2.63137 68.2672C3.78434 68.23 4.93729 68.1923 6.09021 68.1542C6.66092 68.1414 7.23162 68.1286 7.81963 68.1154C12.5376 67.9459 15.3265 67.1468 18.6413 64.927C20.2963 64.9603 20.2963 64.9603 22.2425 65.1753C24.8452 65.4262 26.3485 65.4827 28.9682 65.1043C32.3421 64.8533 33.654 65.955 36.4353 67.1967C40.1937 67.9313 43.0556 68.0335 46.7092 67.0548C49.0889 65.5306 50.3172 64.2297 51.9521 62.3382C53.9726 60.0772 55.2497 58.8833 59.0485 58.0826C59.6635 57.9941 60.2784 57.9056 60.912 57.8144C62.8696 57.526 64.3704 57.1 66.092 56.4158C66.6846 55.6688 67.2505 54.912 67.7867 54.1461C70.9535 52.7324 72.5091 52.7515 76.26 53.0113C78.6642 54.0597 80.2378 55.0434 81.9265 56.5931C84.3872 57.7955 85.1321 57.555 88.0697 57.2669C92.0921 56.8838 92.0921 56.8838 94.7424 57.8698C96.1304 58.9055 97.4552 59.9489 98.7673 61.026C102.526 63.9947 106.48 64.0927 112.037 64.6078C114.39 64.927 114.39 64.927 116.932 66.0618C119.826 66.393 119.826 66.393 122.863 66.0618C125.06 64.8848 126.67 63.6098 128.351 62.1055C131.85 59.1347 134.745 58.0932 140.108 56.9766C144.516 55.8751 147.358 53.6755 150.508 51.4155C152.729 50.0453 153.748 49.6068 156.757 49.6068C157.753 50.0281 157.753 50.0281 158.769 50.4579C161.883 51.6496 163.487 51.3301 166.925 50.7416C169.378 49.3665 169.378 49.3665 171.426 47.6209C176.507 43.5775 176.507 43.5775 181.329 44.5001ZM233.864 71.1686C233.864 71.3558 233.864 71.5431 233.864 71.736C238.338 71.736 242.812 71.736 247.421 71.736C247.421 71.5487 247.421 71.3615 247.421 71.1686C242.947 71.1686 238.473 71.1686 233.864 71.1686Z" fill="#57A8F1"/>
<path d="M1118.01 43.5001C1119.15 44.0563 1120.28 44.6234 1121.39 45.2023C1121.93 45.2821 1122.47 45.3618 1123.03 45.4439C1128.95 46.5419 1132.92 51.683 1136.18 54.912C1138.04 56.7311 1139.7 58.2659 1142.58 59.3877C1144.43 59.2326 1145.85 58.8548 1147.56 58.3593C1149.36 58.2529 1149.36 58.2529 1151.79 59.3522C1154.25 60.689 1154.25 60.689 1156.84 60.4383C1160.44 60.5513 1161.73 61.4611 1164.4 63.0404C1168.66 65.6231 1168.66 65.6231 1174.04 66.3762C1174.72 66.4 1175.41 66.4238 1176.11 66.4482C1177.18 66.4817 1177.18 66.4817 1178.27 66.5158C1179.35 66.5526 1179.35 66.5526 1180.45 66.5901C1182.23 66.6503 1184.01 66.7075 1185.79 66.7641C1185.79 68.2621 1185.79 69.76 1185.79 71.3034C1185.33 71.2767 1184.86 71.2499 1184.38 71.2224C1174.71 70.4896 1174.71 70.4896 1165.82 72.4405C1163.44 73.812 1163.44 73.812 1161.46 75.293C1158.97 76.7279 1157.64 76.5224 1154.44 76.4101C1152.74 77.1614 1151.05 77.9176 1149.36 78.6798C1147.4 78.5639 1146.15 78.1697 1144.38 77.6159C1141.79 77.5141 1140.67 78.4338 1138.8 79.5223C1136.76 80.8669 1135.28 82.3951 1133.73 83.9993C1127.68 90.0457 1127.68 90.0457 1123.94 91.7303C1121.02 91.9786 1121.02 91.9786 1118.85 91.7303C1118.01 92.8538 1118.01 92.8538 1117.16 94C1113.78 93.8687 1112.39 93.6409 1109.93 92.0318C1108.57 90.8858 1107.21 89.7392 1105.85 88.5918C1103.09 86.8729 1101.4 86.6674 1097.67 86.6236C1096.97 86.9162 1096.27 87.2088 1095.55 87.5102C1093.43 88.3259 1093.43 88.3259 1090.63 88.184C1086.85 87.3221 1084.81 85.28 1082.34 83.29C1079.55 81.212 1076.74 80.5292 1072.73 79.9919C1068.47 78.9431 1066.53 77.0395 1063.78 74.7079C1060.88 72.3469 1060.88 72.3469 1056.63 71.5871C1053.61 71.7609 1053.61 71.7609 1051.17 72.6865C1048.65 73.5318 1047.43 73.6994 1044.71 73.8213C1040.28 74.0849 1037.46 75.1211 1034.52 77.4231C1034.09 77.7793 1033.66 78.1355 1033.22 78.5025C1031.66 79.7636 1030.96 80.3194 1028.66 80.9495C1026.49 80.9495 1026.49 80.9495 1023.53 80.5239C1020.45 80.1454 1020.45 80.1454 1018.28 81.6587C1017.31 82.4311 1017.31 82.4311 1016.33 83.2191C1014.11 84.6558 1013.15 84.9031 1010.02 85.1696C1006.55 84.8839 1005.18 84.3169 1002.77 82.6517C1002.77 82.2772 1002.77 81.9027 1002.77 81.5169C1000.42 80.6597 998.329 80.225 995.725 79.8501C991.002 78.8548 989.561 76.6736 987.182 73.9211C985.393 71.9717 983.922 71.0217 980.737 70.1686C976.699 69.9928 973.921 70.3439 970.622 71.9418C967.249 73.3246 965.325 72.994 961.53 72.5978C959.462 72.3531 959.462 72.3531 957.118 72.8283C956.227 72.9161 956.227 72.9161 955.317 73.0057C953.517 71.9418 953.517 71.9418 951.928 70.736C948.911 70.0625 946.019 69.9694 942.872 69.8494C942.277 69.8249 941.683 69.8004 941.07 69.7752C939.605 69.7151 938.141 69.6579 936.676 69.6012C936.676 68.8522 936.676 68.1032 936.676 67.3315C937.544 67.3103 938.413 67.2891 939.307 67.2672C940.46 67.23 941.613 67.1923 942.766 67.1542C943.337 67.1414 943.908 67.1286 944.496 67.1154C949.214 66.9459 952.003 66.1468 955.317 63.927C956.972 63.9603 956.972 63.9603 958.919 64.1753C961.521 64.4262 963.025 64.4827 965.644 64.1043C969.018 63.8533 970.33 64.955 973.111 66.1967C976.87 66.9313 979.732 67.0335 983.385 66.0548C985.765 64.5306 986.993 63.2297 988.628 61.3382C990.649 59.0772 991.926 57.8833 995.725 57.0826C996.34 56.9941 996.954 56.9056 997.588 56.8144C999.546 56.526 1001.05 56.1 1002.77 55.4158C1003.36 54.6688 1003.93 53.912 1004.46 53.1461C1007.63 51.7324 1009.19 51.7515 1012.94 52.0113C1015.34 53.0597 1016.91 54.0434 1018.6 55.5931C1021.06 56.7955 1021.81 56.555 1024.75 56.2669C1028.77 55.8838 1028.77 55.8838 1031.42 56.8698C1032.81 57.9055 1034.13 58.9489 1035.44 60.026C1039.2 62.9947 1043.16 63.0927 1048.71 63.6078C1051.07 63.927 1051.07 63.927 1053.61 65.0618C1056.5 65.393 1056.5 65.393 1059.54 65.0618C1061.74 63.8848 1063.35 62.6098 1065.03 61.1055C1068.53 58.1347 1071.42 57.0932 1076.78 55.9766C1081.19 54.8751 1084.03 52.6755 1087.18 50.4155C1089.4 49.0453 1090.42 48.6068 1093.43 48.6068C1094.43 49.0281 1094.43 49.0281 1095.45 49.4579C1098.56 50.6496 1100.16 50.3301 1103.6 49.7416C1106.05 48.3665 1106.05 48.3665 1108.1 46.6209C1113.18 42.5775 1113.18 42.5775 1118.01 43.5001ZM1170.54 70.1686C1170.54 70.3558 1170.54 70.5431 1170.54 70.736C1175.01 70.736 1179.49 70.736 1184.1 70.736C1184.1 70.5487 1184.1 70.3615 1184.1 70.1686C1179.62 70.1686 1175.15 70.1686 1170.54 70.1686Z" fill="#57A8F1"/>
<path d="M406.245 44.5001C407.388 45.0563 408.518 45.6234 409.635 46.2023C410.173 46.2821 410.712 46.3618 411.267 46.4439C417.189 47.5419 421.155 52.683 424.419 55.912C426.283 57.7311 427.942 59.2659 430.818 60.3877C432.671 60.2326 434.089 59.8548 435.796 59.3593C437.597 59.2529 437.597 59.2529 440.033 60.3522C442.487 61.689 442.487 61.689 445.084 61.4383C448.681 61.5513 449.973 62.4611 452.637 64.0404C456.902 66.6231 456.902 66.6231 462.282 67.3762C462.965 67.4 463.647 67.4238 464.351 67.4482C465.421 67.4817 465.421 67.4817 466.512 67.5158C467.592 67.5526 467.592 67.5526 468.693 67.5901C470.473 67.6503 472.252 67.7075 474.032 67.7641C474.032 69.2621 474.032 70.76 474.032 72.3034C473.568 72.2767 473.103 72.2499 472.624 72.2224C462.954 71.4896 462.954 71.4896 454.063 73.4405C451.68 74.812 451.68 74.812 449.704 76.293C447.213 77.7279 445.878 77.5224 442.681 77.4101C440.981 78.1614 439.286 78.9176 437.597 79.6798C435.635 79.5639 434.391 79.1697 432.619 78.6159C430.033 78.5141 428.914 79.4338 427.037 80.5223C424.999 81.8669 423.525 83.3951 421.974 84.9993C415.924 91.0457 415.924 91.0457 412.177 92.7303C409.264 92.9786 409.264 92.9786 407.093 92.7303C406.254 93.8538 406.254 93.8538 405.398 95C402.021 94.8687 400.633 94.6409 398.173 93.0318C396.812 91.8858 395.453 90.7392 394.095 89.5918C391.329 87.8729 389.638 87.6674 385.909 87.6236C385.21 87.9162 384.511 88.2088 383.791 88.5102C381.673 89.3259 381.673 89.3259 378.866 89.184C375.095 88.3221 373.054 86.28 370.578 84.29C367.794 82.212 364.977 81.5292 360.966 80.9919C356.715 79.9431 354.772 78.0395 352.016 75.7079C349.124 73.3469 349.124 73.3469 344.867 72.5871C341.853 72.7609 341.853 72.7609 339.412 73.6865C336.887 74.5318 335.672 74.6994 332.951 74.8213C328.518 75.0849 325.697 76.1211 322.763 78.4231C322.333 78.7793 321.903 79.1355 321.459 79.5025C319.903 80.7636 319.198 81.3194 316.905 81.9495C314.733 81.9495 314.733 81.9495 311.768 81.5239C308.688 81.1454 308.688 81.1454 306.525 82.6587C305.555 83.4311 305.555 83.4311 304.565 84.2191C302.346 85.6558 301.39 85.9031 298.263 86.1696C294.79 85.8839 293.422 85.3169 291.008 83.6517C291.008 83.2772 291.008 82.9027 291.008 82.5169C288.655 81.6597 286.569 81.225 283.965 80.8501C279.243 79.8548 277.801 77.6736 275.422 74.9211C273.633 72.9717 272.162 72.0217 268.977 71.1686C264.939 70.9928 262.161 71.3439 258.862 72.9418C255.49 74.3246 253.565 73.994 249.77 73.5978C247.702 73.3531 247.702 73.3531 245.358 73.8283C244.467 73.9161 244.467 73.9161 243.557 74.0057C241.757 72.9418 241.757 72.9418 240.168 71.736C237.151 71.0625 234.259 70.9694 231.112 70.8494C230.518 70.8249 229.923 70.8004 229.31 70.7752C227.846 70.7151 226.381 70.6579 224.916 70.6012C224.916 69.8522 224.916 69.1032 224.916 68.3315C225.784 68.3103 226.653 68.2891 227.548 68.2672C228.7 68.23 229.853 68.1923 231.006 68.1542C231.577 68.1414 232.148 68.1286 232.736 68.1154C237.454 67.9459 240.243 67.1468 243.557 64.927C245.212 64.9603 245.212 64.9603 247.159 65.1753C249.761 65.4262 251.265 65.4827 253.884 65.1043C257.258 64.8533 258.57 65.955 261.351 67.1967C265.11 67.9313 267.972 68.0335 271.625 67.0548C274.005 65.5306 275.233 64.2297 276.868 62.3382C278.889 60.0772 280.166 58.8833 283.965 58.0826C284.58 57.9941 285.195 57.9056 285.828 57.8144C287.786 57.526 289.286 57.1 291.008 56.4158C291.601 55.6688 292.167 54.912 292.703 54.1461C295.87 52.7324 297.425 52.7515 301.176 53.0113C303.58 54.0597 305.154 55.0434 306.843 56.5931C309.303 57.7955 310.048 57.555 312.986 57.2669C317.008 56.8838 317.008 56.8838 319.659 57.8698C321.047 58.9055 322.371 59.9489 323.683 61.026C327.442 63.9947 331.396 64.0927 336.953 64.6078C339.306 64.927 339.306 64.927 341.848 66.0618C344.742 66.393 344.742 66.393 347.779 66.0618C349.977 64.8848 351.586 63.6098 353.267 62.1055C356.767 59.1347 359.662 58.0932 365.024 56.9766C369.432 55.8751 372.274 53.6755 375.424 51.4155C377.645 50.0453 378.664 49.6068 381.673 49.6068C382.669 50.0281 382.669 50.0281 383.685 50.4579C386.799 51.6496 388.403 51.3301 391.841 50.7416C394.295 49.3665 394.295 49.3665 396.342 47.6209C401.423 43.5775 401.423 43.5775 406.245 44.5001ZM458.78 71.1686C458.78 71.3558 458.78 71.5431 458.78 71.736C463.254 71.736 467.728 71.736 472.337 71.736C472.337 71.5487 472.337 71.3615 472.337 71.1686C467.864 71.1686 463.39 71.1686 458.78 71.1686Z" fill="#57A8F1"/>
<path d="M1342.92 43.5001C1344.06 44.0563 1345.19 44.6234 1346.31 45.2023C1346.85 45.2821 1347.39 45.3618 1347.94 45.4439C1353.87 46.5419 1357.83 51.683 1361.09 54.912C1362.96 56.7311 1364.62 58.2659 1367.49 59.3877C1369.35 59.2326 1370.76 58.8548 1372.47 58.3593C1374.27 58.2529 1374.27 58.2529 1376.71 59.3522C1379.16 60.689 1379.16 60.689 1381.76 60.4383C1385.36 60.5513 1386.65 61.4611 1389.31 63.0404C1393.58 65.6231 1393.58 65.6231 1398.96 66.3762C1399.64 66.4 1400.32 66.4238 1401.03 66.4482C1402.1 66.4817 1402.1 66.4817 1403.19 66.5158C1404.27 66.5526 1404.27 66.5526 1405.37 66.5901C1407.15 66.6503 1408.93 66.7075 1410.71 66.7641C1410.71 68.2621 1410.71 69.76 1410.71 71.3034C1410.24 71.2767 1409.78 71.2499 1409.3 71.2224C1399.63 70.4896 1399.63 70.4896 1390.74 72.4405C1388.36 73.812 1388.36 73.812 1386.38 75.293C1383.89 76.7279 1382.55 76.5224 1379.36 76.4101C1377.66 77.1614 1375.96 77.9176 1374.27 78.6798C1372.31 78.5639 1371.07 78.1697 1369.29 77.6159C1366.71 77.5141 1365.59 78.4338 1363.71 79.5223C1361.67 80.8669 1360.2 82.3951 1358.65 83.9993C1352.6 90.0457 1352.6 90.0457 1348.85 91.7303C1345.94 91.9786 1345.94 91.9786 1343.77 91.7303C1342.93 92.8538 1342.93 92.8538 1342.07 94C1338.7 93.8687 1337.31 93.6409 1334.85 92.0318C1333.49 90.8858 1332.13 89.7392 1330.77 88.5918C1328 86.8729 1326.31 86.6674 1322.59 86.6236C1321.89 86.9162 1321.19 87.2088 1320.47 87.5102C1318.35 88.3259 1318.35 88.3259 1315.54 88.184C1311.77 87.3221 1309.73 85.28 1307.25 83.29C1304.47 81.212 1301.65 80.5292 1297.64 79.9919C1293.39 78.9431 1291.45 77.0395 1288.69 74.7079C1285.8 72.3469 1285.8 72.3469 1281.54 71.5871C1278.53 71.7609 1278.53 71.7609 1276.09 72.6865C1273.56 73.5318 1272.35 73.6994 1269.63 73.8213C1265.19 74.0849 1262.37 75.1211 1259.44 77.4231C1259.01 77.7793 1258.58 78.1355 1258.14 78.5025C1256.58 79.7636 1255.87 80.3194 1253.58 80.9495C1251.41 80.9495 1251.41 80.9495 1248.44 80.5239C1245.36 80.1454 1245.36 80.1454 1243.2 81.6587C1242.23 82.4311 1242.23 82.4311 1241.24 83.2191C1239.02 84.6558 1238.07 84.9031 1234.94 85.1696C1231.47 84.8839 1230.1 84.3169 1227.68 82.6517C1227.68 82.2772 1227.68 81.9027 1227.68 81.5169C1225.33 80.6597 1223.25 80.225 1220.64 79.8501C1215.92 78.8548 1214.48 76.6736 1212.1 73.9211C1210.31 71.9717 1208.84 71.0217 1205.65 70.1686C1201.61 69.9928 1198.84 70.3439 1195.54 71.9418C1192.17 73.3246 1190.24 72.994 1186.45 72.5978C1184.38 72.3531 1184.38 72.3531 1182.03 72.8283C1181.14 72.9161 1181.14 72.9161 1180.23 73.0057C1178.43 71.9418 1178.43 71.9418 1176.84 70.736C1173.83 70.0625 1170.94 69.9694 1167.79 69.8494C1167.19 69.8249 1166.6 69.8004 1165.99 69.7752C1164.52 69.7151 1163.06 69.6579 1161.59 69.6012C1161.59 68.8522 1161.59 68.1032 1161.59 67.3315C1162.46 67.3103 1163.33 67.2891 1164.22 67.2672C1165.38 67.23 1166.53 67.1923 1167.68 67.1542C1168.25 67.1414 1168.82 67.1286 1169.41 67.1154C1174.13 66.9459 1176.92 66.1468 1180.23 63.927C1181.89 63.9603 1181.89 63.9603 1183.83 64.1753C1186.44 64.4262 1187.94 64.4827 1190.56 64.1043C1193.93 63.8533 1195.25 64.955 1198.03 66.1967C1201.79 66.9313 1204.65 67.0335 1208.3 66.0548C1210.68 64.5306 1211.91 63.2297 1213.54 61.3382C1215.56 59.0772 1216.84 57.8833 1220.64 57.0826C1221.26 56.9941 1221.87 56.9056 1222.5 56.8144C1224.46 56.526 1225.96 56.1 1227.68 55.4158C1228.28 54.6688 1228.84 53.912 1229.38 53.1461C1232.55 51.7324 1234.1 51.7515 1237.85 52.0113C1240.26 53.0597 1241.83 54.0434 1243.52 55.5931C1245.98 56.7955 1246.72 56.555 1249.66 56.2669C1253.68 55.8838 1253.68 55.8838 1256.33 56.8698C1257.72 57.9055 1259.05 58.9489 1260.36 60.026C1264.12 62.9947 1268.07 63.0927 1273.63 63.6078C1275.98 63.927 1275.98 63.927 1278.52 65.0618C1281.42 65.393 1281.42 65.393 1284.46 65.0618C1286.65 63.8848 1288.26 62.6098 1289.94 61.1055C1293.44 58.1347 1296.34 57.0932 1301.7 55.9766C1306.11 54.8751 1308.95 52.6755 1312.1 50.4155C1314.32 49.0453 1315.34 48.6068 1318.35 48.6068C1319.34 49.0281 1319.34 49.0281 1320.36 49.4579C1323.48 50.6496 1325.08 50.3301 1328.52 49.7416C1330.97 48.3665 1330.97 48.3665 1333.02 46.6209C1338.1 42.5775 1338.1 42.5775 1342.92 43.5001ZM1395.46 70.1686C1395.46 70.3558 1395.46 70.5431 1395.46 70.736C1399.93 70.736 1404.4 70.736 1409.01 70.736C1409.01 70.5487 1409.01 70.3615 1409.01 70.1686C1404.54 70.1686 1400.07 70.1686 1395.46 70.1686Z" fill="#57A8F1"/>
<path d="M503.384 44.5001C502.242 45.0563 501.111 45.6234 499.994 46.2023C499.456 46.2821 498.917 46.3618 498.363 46.4439C492.44 47.5419 488.474 52.683 485.21 55.912C483.347 57.7311 481.687 59.2659 478.811 60.3877C476.958 60.2326 475.541 59.8548 473.833 59.3593C472.032 59.2529 472.032 59.2529 469.596 60.3522C467.142 61.689 467.142 61.689 464.545 61.4383C460.948 61.5513 459.656 62.4611 456.992 64.0404C452.727 66.6231 452.727 66.6231 447.347 67.3762C446.665 67.4 445.982 67.4238 445.278 67.4482C444.209 67.4817 444.209 67.4817 443.117 67.5158C442.037 67.5526 442.037 67.5526 440.936 67.5901C439.156 67.6503 437.377 67.7075 435.597 67.7641C435.597 69.2621 435.597 70.76 435.597 72.3034C436.062 72.2767 436.526 72.2499 437.005 72.2224C446.675 71.4896 446.675 71.4896 455.566 73.4405C457.949 74.812 457.949 74.812 459.925 76.293C462.416 77.7279 463.751 77.5224 466.948 77.4101C468.648 78.1614 470.343 78.9176 472.032 79.6798C473.994 79.5639 475.238 79.1697 477.01 78.6159C479.596 78.5141 480.715 79.4338 482.592 80.5223C484.63 81.8669 486.104 83.3951 487.655 84.9993C493.706 91.0457 493.706 91.0457 497.452 92.7303C500.365 92.9786 500.365 92.9786 502.536 92.7303C503.375 93.8538 503.375 93.8538 504.231 95C507.608 94.8687 508.997 94.6409 511.457 93.0318C512.817 91.8858 514.176 90.7392 515.534 89.5918C518.3 87.8729 519.991 87.6674 523.72 87.6236C524.419 87.9162 525.118 88.2088 525.838 88.5102C527.956 89.3259 527.956 89.3259 530.763 89.184C534.534 88.3221 536.575 86.28 539.051 84.29C541.835 82.212 544.652 81.5292 548.663 80.9919C552.914 79.9431 554.857 78.0395 557.613 75.7079C560.506 73.3469 560.506 73.3469 564.762 72.5871C567.776 72.7609 567.776 72.7609 570.217 73.6865C572.742 74.5318 573.957 74.6994 576.678 74.8213C581.111 75.0849 583.932 76.1211 586.866 78.4231C587.296 78.7793 587.727 79.1355 588.17 79.5025C589.727 80.7636 590.431 81.3194 592.724 81.9495C594.896 81.9495 594.896 81.9495 597.861 81.5239C600.941 81.1454 600.941 81.1454 603.104 82.6587C604.074 83.4311 604.074 83.4311 605.064 84.2191C607.283 85.6558 608.239 85.9031 611.366 86.1696C614.839 85.8839 616.208 85.3169 618.621 83.6517C618.621 83.2772 618.621 82.9027 618.621 82.5169C620.974 81.6597 623.06 81.225 625.664 80.8501C630.387 79.8548 631.828 77.6736 634.207 74.9211C635.996 72.9717 637.467 72.0217 640.652 71.1686C644.691 70.9928 647.468 71.3439 650.767 72.9418C654.14 74.3246 656.064 73.994 659.859 73.5978C661.927 73.3531 661.927 73.3531 664.271 73.8283C665.162 73.9161 665.162 73.9161 666.072 74.0057C667.872 72.9418 667.872 72.9418 669.461 71.736C672.478 71.0625 675.37 70.9694 678.517 70.8494C679.112 70.8249 679.706 70.8004 680.319 70.7752C681.784 70.7151 683.248 70.6579 684.713 70.6012C684.713 69.8522 684.713 69.1032 684.713 68.3315C683.845 68.3103 682.976 68.2891 682.082 68.2672C680.929 68.23 679.776 68.1923 678.623 68.1542C678.052 68.1414 677.481 68.1286 676.893 68.1154C672.175 67.9459 669.387 67.1468 666.072 64.927C664.417 64.9603 664.417 64.9603 662.471 65.1753C659.868 65.4262 658.364 65.4827 655.745 65.1043C652.371 64.8533 651.059 65.955 648.278 67.1967C644.519 67.9313 641.657 68.0335 638.004 67.0548C635.624 65.5306 634.396 64.2297 632.761 62.3382C630.74 60.0772 629.463 58.8833 625.664 58.0826C625.05 57.9941 624.435 57.9056 623.801 57.8144C621.843 57.526 620.343 57.1 618.621 56.4158C618.028 55.6688 617.462 54.912 616.926 54.1461C613.76 52.7324 612.204 52.7515 608.453 53.0113C606.049 54.0597 604.475 55.0434 602.786 56.5931C600.326 57.7955 599.581 57.555 596.643 57.2669C592.621 56.8838 592.621 56.8838 589.971 57.8698C588.583 58.9055 587.258 59.9489 585.946 61.026C582.187 63.9947 578.233 64.0927 572.676 64.6078C570.323 64.927 570.323 64.927 567.781 66.0618C564.887 66.393 564.887 66.393 561.85 66.0618C559.653 64.8848 558.043 63.6098 556.362 62.1055C552.863 59.1347 549.968 58.0932 544.605 56.9766C540.197 55.8751 537.355 53.6755 534.205 51.4155C531.984 50.0453 530.965 49.6068 527.956 49.6068C526.96 50.0281 526.96 50.0281 525.944 50.4579C522.83 51.6496 521.226 51.3301 517.788 50.7416C515.335 49.3665 515.335 49.3665 513.287 47.6209C508.206 43.5775 508.206 43.5775 503.384 44.5001ZM450.849 71.1686C450.849 71.3558 450.849 71.5431 450.849 71.736C446.375 71.736 441.901 71.736 437.292 71.736C437.292 71.5487 437.292 71.3615 437.292 71.1686C441.766 71.1686 446.24 71.1686 450.849 71.1686Z" fill="#57A8F1"/>
<path d="M1440.06 43.5001C1438.92 44.0563 1437.79 44.6234 1436.67 45.2023C1436.13 45.2821 1435.59 45.3618 1435.04 45.4439C1429.12 46.5419 1425.15 51.683 1421.89 54.912C1420.02 56.7311 1418.36 58.2659 1415.49 59.3877C1413.63 59.2326 1412.22 58.8548 1410.51 58.3593C1408.71 58.2529 1408.71 58.2529 1406.27 59.3522C1403.82 60.689 1403.82 60.689 1401.22 60.4383C1397.62 60.5513 1396.33 61.4611 1393.67 63.0404C1389.4 65.6231 1389.4 65.6231 1384.02 66.3762C1383.34 66.4 1382.66 66.4238 1381.95 66.4482C1380.88 66.4817 1380.88 66.4817 1379.79 66.5158C1378.71 66.5526 1378.71 66.5526 1377.61 66.5901C1375.83 66.6503 1374.05 66.7075 1372.27 66.7641C1372.27 68.2621 1372.27 69.76 1372.27 71.3034C1372.74 71.2767 1373.2 71.2499 1373.68 71.2224C1383.35 70.4896 1383.35 70.4896 1392.24 72.4405C1394.63 73.812 1394.63 73.812 1396.6 75.293C1399.09 76.7279 1400.43 76.5224 1403.62 76.4101C1405.32 77.1614 1407.02 77.9176 1408.71 78.6798C1410.67 78.5639 1411.91 78.1697 1413.69 77.6159C1416.27 77.5141 1417.39 78.4338 1419.27 79.5223C1421.31 80.8669 1422.78 82.3951 1424.33 83.9993C1430.38 90.0457 1430.38 90.0457 1434.13 91.7303C1437.04 91.9786 1437.04 91.9786 1439.21 91.7303C1440.05 92.8538 1440.05 92.8538 1440.91 94C1444.28 93.8687 1445.67 93.6409 1448.13 92.0318C1449.49 90.8858 1450.85 89.7392 1452.21 88.5918C1454.98 86.8729 1456.67 86.6674 1460.4 86.6236C1461.09 86.9162 1461.79 87.2088 1462.51 87.5102C1464.63 88.3259 1464.63 88.3259 1467.44 88.184C1471.21 87.3221 1473.25 85.28 1475.73 83.29C1478.51 81.212 1481.33 80.5292 1485.34 79.9919C1489.59 78.9431 1491.53 77.0395 1494.29 74.7079C1497.18 72.3469 1497.18 72.3469 1501.44 71.5871C1504.45 71.7609 1504.45 71.7609 1506.89 72.6865C1509.42 73.5318 1510.63 73.6994 1513.35 73.8213C1517.79 74.0849 1520.61 75.1211 1523.54 77.4231C1523.97 77.7793 1524.4 78.1355 1524.85 78.5025C1526.4 79.7636 1527.11 80.3194 1529.4 80.9495C1531.57 80.9495 1531.57 80.9495 1534.54 80.5239C1537.62 80.1454 1537.62 80.1454 1539.78 81.6587C1540.75 82.4311 1540.75 82.4311 1541.74 83.2191C1543.96 84.6558 1544.91 84.9031 1548.04 85.1696C1551.52 84.8839 1552.88 84.3169 1555.3 82.6517C1555.3 82.2772 1555.3 81.9027 1555.3 81.5169C1557.65 80.6597 1559.74 80.225 1562.34 79.8501C1567.06 78.8548 1568.5 76.6736 1570.88 73.9211C1572.67 71.9717 1574.14 71.0217 1577.33 70.1686C1581.37 69.9928 1584.14 70.3439 1587.44 71.9418C1590.82 73.3246 1592.74 72.994 1596.53 72.5978C1598.6 72.3531 1598.6 72.3531 1600.95 72.8283C1601.84 72.9161 1601.84 72.9161 1602.75 73.0057C1604.55 71.9418 1604.55 71.9418 1606.14 70.736C1609.15 70.0625 1612.05 69.9694 1615.19 69.8494C1615.79 69.8249 1616.38 69.8004 1617 69.7752C1618.46 69.7151 1619.92 69.6579 1621.39 69.6012C1621.39 68.8522 1621.39 68.1032 1621.39 67.3315C1620.52 67.3103 1619.65 67.2891 1618.76 67.2672C1617.6 67.23 1616.45 67.1923 1615.3 67.1542C1614.73 67.1414 1614.16 67.1286 1613.57 67.1154C1608.85 66.9459 1606.06 66.1468 1602.75 63.927C1601.09 63.9603 1601.09 63.9603 1599.15 64.1753C1596.54 64.4262 1595.04 64.4827 1592.42 64.1043C1589.05 63.8533 1587.73 64.955 1584.95 66.1967C1581.2 66.9313 1578.33 67.0335 1574.68 66.0548C1572.3 64.5306 1571.07 63.2297 1569.44 61.3382C1567.42 59.0772 1566.14 57.8833 1562.34 57.0826C1561.73 56.9941 1561.11 56.9056 1560.48 56.8144C1558.52 56.526 1557.02 56.1 1555.3 55.4158C1554.7 54.6688 1554.14 53.912 1553.6 53.1461C1550.44 51.7324 1548.88 51.7515 1545.13 52.0113C1542.72 53.0597 1541.15 54.0434 1539.46 55.5931C1537 56.7955 1536.26 56.555 1533.32 56.2669C1529.3 55.8838 1529.3 55.8838 1526.65 56.8698C1525.26 57.9055 1523.93 58.9489 1522.62 60.026C1518.86 62.9947 1514.91 63.0927 1509.35 63.6078C1507 63.927 1507 63.927 1504.46 65.0618C1501.56 65.393 1501.56 65.393 1498.53 65.0618C1496.33 63.8848 1494.72 62.6098 1493.04 61.1055C1489.54 58.1347 1486.64 57.0932 1481.28 55.9766C1476.87 54.8751 1474.03 52.6755 1470.88 50.4155C1468.66 49.0453 1467.64 48.6068 1464.63 48.6068C1463.64 49.0281 1463.64 49.0281 1462.62 49.4579C1459.51 50.6496 1457.9 50.3301 1454.46 49.7416C1452.01 48.3665 1452.01 48.3665 1449.96 46.6209C1444.88 42.5775 1444.88 42.5775 1440.06 43.5001ZM1387.52 70.1686C1387.52 70.3558 1387.52 70.5431 1387.52 70.736C1383.05 70.736 1378.58 70.736 1373.97 70.736C1373.97 70.5487 1373.97 70.3615 1373.97 70.1686C1378.44 70.1686 1382.92 70.1686 1387.52 70.1686Z" fill="#57A8F1"/>
<path d="M687.018 47.4413C685.876 47.932 684.745 48.4324 683.629 48.9432C683.09 49.0136 682.552 49.0839 681.997 49.1564C676.074 50.1252 672.108 54.6615 668.844 57.5106C666.981 59.1157 665.321 60.4699 662.445 61.4597C660.593 61.3229 659.175 60.9895 657.467 60.5523C655.667 60.4584 655.667 60.4584 653.23 61.4284C650.776 62.6079 650.776 62.6079 648.18 62.3867C644.582 62.4864 643.29 63.2892 640.626 64.6827C636.362 66.9615 636.362 66.9615 630.981 67.6261C630.299 67.647 629.616 67.668 628.913 67.6896C627.843 67.7192 627.843 67.7192 626.751 67.7493C625.672 67.7817 625.672 67.7817 624.57 67.8148C622.791 67.868 621.011 67.9184 619.231 67.9683C619.231 69.2901 619.231 70.6118 619.231 71.9736C619.696 71.95 620.16 71.9264 620.639 71.9021C630.309 71.2556 630.309 71.2556 639.2 72.9769C641.583 74.1871 641.583 74.1871 643.559 75.4939C646.05 76.7599 647.385 76.5786 650.583 76.4795C652.282 77.1424 653.978 77.8096 655.667 78.4822C657.628 78.3799 658.872 78.0321 660.645 77.5434C663.23 77.4536 664.349 78.2652 666.226 79.2256C668.264 80.412 669.739 81.7604 671.289 83.1759C677.34 88.5109 677.34 88.5109 681.087 89.9974C683.999 90.2164 683.999 90.2164 686.171 89.9974C687.009 90.9887 687.009 90.9887 687.865 92C691.242 91.8842 692.631 91.6831 695.091 90.2633C696.451 89.2522 697.811 88.2405 699.168 87.2281C701.934 85.7114 703.625 85.5301 707.354 85.4914C708.053 85.7496 708.752 86.0077 709.472 86.2737C711.591 86.9934 711.591 86.9934 714.397 86.8682C718.168 86.1078 720.209 84.3059 722.685 82.55C725.469 80.7165 728.286 80.114 732.297 79.64C736.548 78.7145 738.491 77.0349 741.247 74.9776C744.14 72.8943 744.14 72.8943 748.397 72.2239C751.41 72.3773 751.41 72.3773 753.851 73.194C756.376 73.9398 757.591 74.0877 760.312 74.1953C764.746 74.4278 767.566 75.3421 770.5 77.3733C770.93 77.6876 771.361 78.0019 771.804 78.3257C773.361 79.4385 774.065 79.9289 776.359 80.4848C778.53 80.4848 778.53 80.4848 781.496 80.1093C784.575 79.7754 784.575 79.7754 786.738 81.1106C787.708 81.7922 787.708 81.7922 788.698 82.4875C790.917 83.7551 791.873 83.9733 795 84.2085C798.474 83.9564 799.842 83.4561 802.255 81.9868C802.255 81.6564 802.255 81.3259 802.255 80.9855C804.608 80.2292 806.694 79.8455 809.299 79.5148C814.021 78.6366 815.462 76.712 817.841 74.2833C819.63 72.5633 821.101 71.725 824.286 70.9723C828.325 70.8172 831.103 71.127 834.401 72.5368C837.774 73.757 839.699 73.4653 843.493 73.1157C845.561 72.8998 845.561 72.8998 847.905 73.3191C848.797 73.3966 848.797 73.3966 849.706 73.4756C851.506 72.5368 851.506 72.5368 853.095 71.4729C856.112 70.8787 859.004 70.7966 862.151 70.6907C862.746 70.669 863.341 70.6474 863.953 70.6251C865.418 70.5722 866.882 70.5217 868.347 70.4716C868.347 69.8107 868.347 69.1499 868.347 68.469C867.479 68.4503 866.61 68.4315 865.716 68.4123C864.563 68.3794 863.41 68.3461 862.257 68.3125C861.686 68.3012 861.116 68.2899 860.528 68.2783C855.81 68.1287 853.021 67.4236 849.706 65.465C848.051 65.4944 848.051 65.4944 846.105 65.6841C843.502 65.9055 841.999 65.9553 839.379 65.6215C836.005 65.4 834.693 66.3721 831.912 67.4677C828.153 68.1159 825.292 68.206 821.638 67.3425C819.258 65.9976 818.03 64.8498 816.395 63.1808C814.375 61.1857 813.097 60.1323 809.299 59.4258C808.684 59.3477 808.069 59.2696 807.435 59.1892C805.478 58.9347 803.977 58.5588 802.255 57.9551C801.663 57.296 801.097 56.6283 800.561 55.9525C797.394 54.705 795.838 54.7219 792.087 54.9512C789.683 55.8762 788.109 56.7442 786.421 58.1116C783.96 59.1725 783.215 58.9603 780.277 58.7061C776.255 58.3681 776.255 58.3681 773.605 59.2381C772.217 60.1519 770.892 61.0725 769.58 62.023C765.821 64.6424 761.867 64.7289 756.311 65.1834C753.957 65.465 753.957 65.465 751.415 66.4663C748.521 66.7586 748.521 66.7586 745.484 66.4663C743.287 65.4278 741.678 64.3027 739.996 62.9754C736.497 60.3541 733.602 59.4352 728.239 58.4499C723.831 57.478 720.99 55.5372 717.84 53.543C715.618 52.3341 714.599 51.9472 711.591 51.9472C710.594 52.3189 710.594 52.3189 709.578 52.6982C706.464 53.7497 704.861 53.4677 701.423 52.9485C698.969 51.7352 698.969 51.7352 696.921 50.1949C691.84 46.6272 691.84 46.6272 687.018 47.4413ZM634.483 70.9723C634.483 71.1375 634.483 71.3027 634.483 71.4729C630.009 71.4729 625.535 71.4729 620.926 71.4729C620.926 71.3077 620.926 71.1425 620.926 70.9723C625.4 70.9723 629.874 70.9723 634.483 70.9723Z" fill="#57A8F1"/>
<path d="M1623.69 46.4413C1622.55 46.932 1621.42 47.4324 1620.3 47.9432C1619.77 48.0136 1619.23 48.0839 1618.67 48.1564C1612.75 49.1252 1608.78 53.6615 1605.52 56.5106C1603.66 58.1157 1602 59.4699 1599.12 60.4597C1597.27 60.3229 1595.85 59.9895 1594.14 59.5523C1592.34 59.4584 1592.34 59.4584 1589.91 60.4284C1587.45 61.6079 1587.45 61.6079 1584.86 61.3867C1581.26 61.4864 1579.97 62.2892 1577.3 63.6827C1573.04 65.9615 1573.04 65.9615 1567.66 66.6261C1566.97 66.647 1566.29 66.668 1565.59 66.6896C1564.52 66.7192 1564.52 66.7192 1563.43 66.7493C1562.35 66.7817 1562.35 66.7817 1561.25 66.8148C1559.47 66.868 1557.69 66.9184 1555.91 66.9683C1555.91 68.2901 1555.91 69.6118 1555.91 70.9736C1556.37 70.95 1556.84 70.9264 1557.31 70.9021C1566.98 70.2556 1566.98 70.2556 1575.88 71.9769C1578.26 73.1871 1578.26 73.1871 1580.23 74.4939C1582.73 75.7599 1584.06 75.5786 1587.26 75.4795C1588.96 76.1424 1590.65 76.8096 1592.34 77.4822C1594.3 77.3799 1595.55 77.0321 1597.32 76.5434C1599.91 76.4536 1601.02 77.2652 1602.9 78.2256C1604.94 79.412 1606.41 80.7604 1607.97 82.1759C1614.02 87.5109 1614.02 87.5109 1617.76 88.9974C1620.68 89.2164 1620.68 89.2164 1622.85 88.9974C1623.69 89.9887 1623.69 89.9887 1624.54 91C1627.92 90.8842 1629.31 90.6831 1631.77 89.2633C1633.13 88.2522 1634.49 87.2405 1635.84 86.2281C1638.61 84.7114 1640.3 84.5301 1644.03 84.4914C1644.73 84.7496 1645.43 85.0077 1646.15 85.2737C1648.27 85.9934 1648.27 85.9934 1651.07 85.8682C1654.84 85.1078 1656.88 83.3059 1659.36 81.55C1662.14 79.7165 1664.96 79.114 1668.97 78.64C1673.22 77.7145 1675.17 76.0349 1677.92 73.9776C1680.82 71.8943 1680.82 71.8943 1685.07 71.2239C1688.09 71.3773 1688.09 71.3773 1690.53 72.194C1693.05 72.9398 1694.27 73.0877 1696.99 73.1953C1701.42 73.4278 1704.24 74.3421 1707.18 76.3733C1707.61 76.6876 1708.04 77.0019 1708.48 77.3257C1710.04 78.4385 1710.74 78.9289 1713.03 79.4848C1715.21 79.4848 1715.21 79.4848 1718.17 79.1093C1721.25 78.7754 1721.25 78.7754 1723.41 80.1106C1724.38 80.7922 1724.38 80.7922 1725.37 81.4875C1727.59 82.7551 1728.55 82.9733 1731.68 83.2085C1735.15 82.9564 1736.52 82.4561 1738.93 80.9868C1738.93 80.6564 1738.93 80.3259 1738.93 79.9855C1741.28 79.2292 1743.37 78.8455 1745.97 78.5148C1750.7 77.6366 1752.14 75.712 1754.52 73.2833C1756.31 71.5633 1757.78 70.725 1760.96 69.9723C1765 69.8172 1767.78 70.127 1771.08 71.5368C1774.45 72.757 1776.37 72.4653 1780.17 72.1157C1782.24 71.8998 1782.24 71.8998 1784.58 72.3191C1785.47 72.3966 1785.47 72.3966 1786.38 72.4756C1788.18 71.5368 1788.18 71.5368 1789.77 70.4729C1792.79 69.8787 1795.68 69.7966 1798.83 69.6907C1799.42 69.669 1800.02 69.6474 1800.63 69.6251C1802.09 69.5722 1803.56 69.5217 1805.02 69.4716C1805.02 68.8107 1805.02 68.1499 1805.02 67.469C1804.15 67.4503 1803.29 67.4315 1802.39 67.4123C1801.24 67.3794 1800.09 67.3461 1798.93 67.3125C1798.36 67.3012 1797.79 67.2899 1797.2 67.2783C1792.49 67.1287 1789.7 66.4236 1786.38 64.465C1784.73 64.4944 1784.73 64.4944 1782.78 64.6841C1780.18 64.9055 1778.67 64.9553 1776.05 64.6215C1772.68 64.4 1771.37 65.3721 1768.59 66.4677C1764.83 67.1159 1761.97 67.206 1758.31 66.3425C1755.93 64.9976 1754.71 63.8498 1753.07 62.1808C1751.05 60.1857 1749.77 59.1323 1745.97 58.4258C1745.36 58.3477 1744.74 58.2696 1744.11 58.1892C1742.15 57.9347 1740.65 57.5588 1738.93 56.9551C1738.34 56.296 1737.77 55.6283 1737.24 54.9525C1734.07 53.705 1732.51 53.7219 1728.76 53.9512C1726.36 54.8762 1724.79 55.7442 1723.1 57.1116C1720.64 58.1725 1719.89 57.9603 1716.95 57.7061C1712.93 57.3681 1712.93 57.3681 1710.28 58.2381C1708.89 59.1519 1707.57 60.0725 1706.26 61.023C1702.5 63.6424 1698.54 63.7289 1692.99 64.1834C1690.63 64.465 1690.63 64.465 1688.09 65.4663C1685.2 65.7586 1685.2 65.7586 1682.16 65.4663C1679.96 64.4278 1678.35 63.3027 1676.67 61.9754C1673.17 59.3541 1670.28 58.4352 1664.92 57.4499C1660.51 56.478 1657.67 54.5372 1654.52 52.543C1652.29 51.3341 1651.28 50.9472 1648.27 50.9472C1647.27 51.3189 1647.27 51.3189 1646.25 51.6982C1643.14 52.7497 1641.54 52.4677 1638.1 51.9485C1635.64 50.7352 1635.64 50.7352 1633.6 49.1949C1628.52 45.6272 1628.52 45.6272 1623.69 46.4413ZM1571.16 69.9723C1571.16 70.1375 1571.16 70.3027 1571.16 70.4729C1566.69 70.4729 1562.21 70.4729 1557.6 70.4729C1557.6 70.3077 1557.6 70.1425 1557.6 69.9723C1562.08 69.9723 1566.55 69.9723 1571.16 69.9723Z" fill="#57A8F1"/>
<path d="M860.687 46.4707C859.545 46.9942 858.414 47.5279 857.298 48.0728C856.759 48.1478 856.221 48.2229 855.666 48.3002C849.743 49.3336 845.777 54.1723 842.514 57.2113C840.65 58.9234 838.991 60.3679 836.114 61.4237C834.262 61.2778 832.844 60.9221 831.136 60.4558C829.336 60.3556 829.336 60.3556 826.9 61.3903C824.445 62.6484 824.445 62.6484 821.849 62.4125C818.252 62.5189 816.959 63.3751 814.296 64.8616C810.031 67.2923 810.031 67.2923 804.651 68.0011C803.968 68.0235 803.285 68.0459 802.582 68.0689C801.512 68.1004 801.512 68.1004 800.42 68.1326C799.341 68.1672 799.341 68.1672 798.239 68.2024C796.46 68.2592 794.68 68.313 792.9 68.3662C792.9 69.7761 792.9 71.1859 792.9 72.6385C793.365 72.6133 793.83 72.5882 794.308 72.5622C803.978 71.8726 803.978 71.8726 812.869 73.7087C815.253 74.9995 815.253 74.9995 817.228 76.3935C819.719 77.7439 821.054 77.5505 824.252 77.4448C825.952 78.1519 827.647 78.8636 829.336 79.581C831.297 79.4719 832.542 79.1009 834.314 78.5797C836.899 78.4838 838.018 79.3495 839.895 80.374C841.933 81.6394 843.408 83.0777 844.958 84.5876C851.009 90.2783 851.009 90.2783 854.756 91.8638C857.668 92.0975 857.668 92.0975 859.84 91.8638C860.679 92.9212 860.679 92.9212 861.534 94C864.911 93.8764 866.3 93.662 868.76 92.1476C870.121 91.069 871.48 89.9898 872.838 88.91C875.604 87.2921 877.295 87.0987 881.023 87.0575C881.722 87.3329 882.421 87.6082 883.141 87.8919C885.26 88.6596 885.26 88.6596 888.067 88.5261C891.837 87.715 893.878 85.793 896.354 83.92C899.138 81.9642 901.955 81.3216 905.966 80.8159C910.218 79.8288 912.16 78.0372 914.916 75.8427C917.809 73.6206 917.809 73.6206 922.066 72.9055C925.08 73.0691 925.08 73.0691 927.52 73.9402C930.045 74.7358 931.26 74.8936 933.981 75.0083C938.415 75.2564 941.236 76.2316 944.169 78.3982C944.6 78.7334 945.03 79.0687 945.473 79.4141C947.03 80.601 947.734 81.1241 950.028 81.7171C952.199 81.7171 952.199 81.7171 955.165 81.3166C958.244 80.9604 958.244 80.9604 960.408 82.3847C961.378 83.1116 961.378 83.1116 962.367 83.8533C964.586 85.2054 965.542 85.4382 968.669 85.689C972.143 85.4202 973.511 84.8865 975.924 83.3192C975.924 82.9668 975.924 82.6143 975.924 82.2512C978.277 81.4445 980.363 81.0352 982.968 80.6824C987.69 79.7457 989.131 77.6928 991.511 75.1022C993.299 73.2675 994.77 72.3733 997.955 71.5704C1001.99 71.405 1004.77 71.7355 1008.07 73.2393C1011.44 74.5408 1013.37 74.2297 1017.16 73.8568C1019.23 73.6264 1019.23 73.6264 1021.57 74.0737C1022.47 74.1563 1022.47 74.1563 1023.38 74.2406C1025.18 73.2393 1025.18 73.2393 1026.76 72.1045C1029.78 71.4706 1032.67 71.383 1035.82 71.27C1036.41 71.247 1037.01 71.2239 1037.62 71.2001C1039.09 71.1436 1040.55 71.0898 1042.02 71.0364C1042.02 70.3315 1042.02 69.6265 1042.02 68.9002C1041.15 68.8803 1040.28 68.8603 1039.38 68.8397C1038.23 68.8047 1037.08 68.7692 1035.93 68.7334C1035.36 68.7213 1034.78 68.7093 1034.2 68.6968C1029.48 68.5373 1026.69 67.7852 1023.38 65.696C1021.72 65.7273 1021.72 65.7273 1019.77 65.9297C1017.17 66.1659 1015.67 66.219 1013.05 65.8629C1009.67 65.6266 1008.36 66.6635 1005.58 67.8322C1001.82 68.5236 998.961 68.6198 995.307 67.6987C992.927 66.2641 991.699 65.0397 990.064 63.2595C988.044 61.1315 986.767 60.0078 982.968 59.2542C982.353 59.1709 981.738 59.0876 981.104 59.0018C979.147 58.7304 977.646 58.3294 975.924 57.6855C975.332 56.9824 974.766 56.2701 974.23 55.5493C971.063 54.2187 969.507 54.2367 965.756 54.4812C963.352 55.4679 961.779 56.3938 960.09 57.8523C957.629 58.984 956.884 58.7577 953.947 58.4865C949.924 58.1259 949.924 58.1259 947.274 59.0539C945.886 60.0287 944.561 61.0107 943.249 62.0245C939.491 64.8185 935.536 64.9108 929.98 65.3956C927.626 65.696 927.626 65.696 925.084 66.7641C922.19 67.0758 922.19 67.0758 919.153 66.7641C916.956 65.6563 915.347 64.4562 913.665 63.0404C910.166 60.2444 907.271 59.2642 901.908 58.2132C897.501 57.1766 894.659 55.1064 891.509 52.9792C889.287 51.6897 888.269 51.277 885.26 51.277C884.264 51.6735 884.264 51.6735 883.247 52.0781C880.133 53.1997 878.53 52.8989 875.092 52.3451C872.638 51.0509 872.638 51.0509 870.59 49.4079C865.509 45.6023 865.509 45.6023 860.687 46.4707ZM808.152 71.5704C808.152 71.7467 808.152 71.9229 808.152 72.1045C803.678 72.1045 799.205 72.1045 794.595 72.1045C794.595 71.9282 794.595 71.752 794.595 71.5704C799.069 71.5704 803.543 71.5704 808.152 71.5704Z" fill="#57A8F1"/>
</g>
<defs>
<clipPath id="clip0_8_42">
<path d="M0 40H1731V50C1731 61.0457 1722.05 70 1711 70H20C8.95428 70 0 61.0457 0 50V40Z" fill="white"/>
</clipPath>
</defs>
</svg>
