<svg width="20" height="16" viewBox="0 0 20 16" fill="none" xmlns="http://www.w3.org/2000/svg">
<g clip-path="url(#clip0_10_221)">
<path d="M4.54547 15.4262V7.73886L2.14898 5.5578L0 4.34746V14.0696C0 14.8202 0.611328 15.4262 1.36367 15.4262H4.54547Z" fill="#4285F4"/>
<path d="M15.4546 15.4262H18.6364C19.391 15.4262 20.0001 14.8179 20.0001 14.0696V4.34754L17.566 5.73383L15.4546 7.73886V15.4262Z" fill="#34A853"/>
<path d="M4.54545 7.73886L4.21936 4.73521L4.54545 1.86041L9.99999 5.93016L15.4545 1.86041L15.8193 4.58L15.4545 7.73886L9.99999 11.8086L4.54545 7.73886Z" fill="#EA4335"/>
<path d="M15.4546 1.86042V7.73886L20.0001 4.34746V2.53868C20.0001 0.861089 18.0751 -0.0952583 16.7274 0.91083L15.4546 1.86042Z" fill="#FBBC04"/>
<path d="M0 4.34747L2.09055 5.90732L4.54547 7.73887V1.86043L3.27266 0.910841C1.92266 -0.0953252 0 0.8611 0 2.53861V4.34747Z" fill="#C5221F"/>
</g>
<defs>
<clipPath id="clip0_10_221">
<rect width="20" height="15" fill="white" transform="translate(0 0.5)"/>
</clipPath>
</defs>
</svg>
