<svg width="41" height="41" viewBox="0 0 41 41" fill="none" xmlns="http://www.w3.org/2000/svg">
<path d="M3.79251 3.79249C3.57552 4.00943 3.44359 4.29703 3.4207 4.60301C3.39781 4.90899 3.48549 5.21302 3.6678 5.45983L3.79251 5.60332L10.6839 12.4965C7.32523 14.8531 4.92692 18.3399 3.92746 22.3194C3.85055 22.647 3.90566 22.9918 4.08088 23.2792C4.2561 23.5665 4.53736 23.7734 4.86386 23.8551C5.19037 23.9368 5.53591 23.8867 5.8258 23.7157C6.11569 23.5447 6.32665 23.2665 6.41309 22.9412C7.30109 19.4091 9.48398 16.3396 12.5289 14.3415L15.621 17.4335C14.3859 18.7242 13.7053 20.4472 13.725 22.2335C13.7447 24.0198 14.4631 25.7274 15.7264 26.9904C16.9897 28.2535 18.6974 28.9717 20.4837 28.991C22.27 29.0104 23.9929 28.3295 25.2833 27.0942L35.395 37.2075C35.6236 37.4367 35.9305 37.5709 36.254 37.5831C36.5776 37.5953 36.8937 37.4845 37.1389 37.2731C37.3841 37.0616 37.5401 36.7652 37.5757 36.4434C37.6112 36.1216 37.5236 35.7983 37.3305 35.5384L37.2058 35.395L26.7628 24.9502L26.7645 24.9468L14.8915 13.0807L14.895 13.0773L12.9594 11.1469L5.60334 3.79249C5.3631 3.55256 5.03745 3.41779 4.69792 3.41779C4.35839 3.41779 4.03274 3.55256 3.79251 3.79249ZM20.5 9.39583C18.7917 9.39583 17.1346 9.64866 15.5646 10.1219L17.6778 12.2334C21.3329 11.5096 25.1263 12.2181 28.2738 14.2123C31.4212 16.2066 33.682 19.334 34.5886 22.948C34.6771 23.2708 34.8884 23.5461 35.1773 23.7151C35.4662 23.8841 35.8097 23.9333 36.1344 23.8523C36.4591 23.7713 36.7393 23.5665 36.9149 23.2816C37.0905 22.9967 37.1477 22.6544 37.0743 22.3279C36.1487 18.6331 34.0149 15.3536 31.0119 13.0106C28.0089 10.6675 24.309 9.39516 20.5 9.39583ZM20.8331 15.3921L27.3265 21.8837C27.2425 20.1889 26.5314 18.5858 25.3313 17.3861C24.1313 16.1863 22.528 15.4756 20.8331 15.3921Z" fill="white"/>
</svg>
