<svg width="41" height="41" viewBox="0 0 41 41" fill="none" xmlns="http://www.w3.org/2000/svg">
<path d="M5.39492 23.7971C4.79712 22.8013 4.48132 21.6616 4.48132 20.5001C4.48132 19.3385 4.79712 18.1989 5.39492 17.203C5.57863 16.8964 5.82447 16.6316 6.11661 16.4256C6.40876 16.2197 6.74077 16.0771 7.09129 16.0071L9.9835 15.428C10.156 15.3939 10.3115 15.3016 10.4242 15.1666L13.9571 10.9248C15.9763 8.49901 16.9877 7.2878 17.888 7.61409C18.7882 7.94039 18.7917 9.51889 18.7917 12.6759V28.3276C18.7917 31.4829 18.7917 33.0597 17.8897 33.3877C16.9894 33.7123 15.978 32.5011 13.9588 30.077L10.4208 25.8335C10.3086 25.6988 10.1537 25.6066 9.98179 25.5721L7.08958 24.993C6.73906 24.923 6.40706 24.7804 6.11491 24.5745C5.82276 24.3685 5.57863 24.1038 5.39492 23.7971Z" stroke="white" stroke-width="3.41667"/>
<path d="M25.625 25.625L35.875 15.375M35.875 25.625L25.625 15.375" stroke="white" stroke-width="3.41667" stroke-linecap="round"/>
</svg>
