<svg width="1736" height="70" viewBox="0 0 1736 70" fill="none" xmlns="http://www.w3.org/2000/svg">
<rect width="1736" height="70" rx="10" fill="#EA92F4"/>
<rect x="5" y="25" width="424" height="40" rx="9" fill="white" fill-opacity="0.5"/>
<rect x="5" y="5" width="36" height="17" rx="4" fill="white" fill-opacity="0.5"/>
<rect x="44" y="17" width="385" height="5" rx="2.5" fill="white" fill-opacity="0.5"/>
<rect x="439" y="25" width="424" height="40" rx="9" fill="white" fill-opacity="0.5"/>
<rect x="439" y="5" width="36" height="17" rx="4" fill="white" fill-opacity="0.5"/>
<rect x="478" y="17" width="385" height="5" rx="2.5" fill="white" fill-opacity="0.5"/>
<rect x="873" y="25" width="424" height="40" rx="9" fill="white" fill-opacity="0.5"/>
<rect x="873" y="5" width="36" height="17" rx="4" fill="white" fill-opacity="0.5"/>
<rect x="912" y="17" width="385" height="5" rx="2.5" fill="white" fill-opacity="0.5"/>
<rect x="1307" y="25" width="424" height="40" rx="9" fill="white" fill-opacity="0.5"/>
<rect x="1307" y="5" width="36" height="17" rx="4" fill="white" fill-opacity="0.5"/>
<rect x="1346" y="17" width="385" height="5" rx="2.5" fill="white" fill-opacity="0.5"/>
</svg>
