<svg width="743" height="22" viewBox="0 0 743 22" fill="none" xmlns="http://www.w3.org/2000/svg">
<mask id="path-1-inside-1_4_5" fill="white">
<path d="M0.154968 0H742.859C742.859 11.7196 733.359 21.2201 721.639 21.2201H21.3751C9.65554 21.2201 0.154968 11.7196 0.154968 0Z"/>
</mask>
<path d="M0.154968 0H742.859H0.154968ZM748.164 -4.76837e-07C748.164 14.6494 736.289 26.5252 721.639 26.5252H21.3751C6.72565 26.5252 -5.15006 14.6494 -5.15006 -4.76837e-07L5.46 4.76837e-07C5.46 8.78966 12.5854 15.9151 21.3751 15.9151H721.639C730.429 15.9151 737.554 8.78966 737.554 4.76837e-07L748.164 -4.76837e-07ZM21.3751 26.5252C6.72565 26.5252 -5.15006 14.6494 -5.15006 -4.76837e-07V0H5.46V4.76837e-07C5.46 8.78966 12.5854 15.9151 21.3751 15.9151V26.5252ZM748.164 0V-4.76837e-07C748.164 14.6494 736.289 26.5252 721.639 26.5252V15.9151C730.429 15.9151 737.554 8.78966 737.554 4.76837e-07V0H748.164Z" fill="url(#paint0_linear_4_5)" mask="url(#path-1-inside-1_4_5)"/>
<defs>
<linearGradient id="paint0_linear_4_5" x1="335.969" y1="0" x2="335.969" y2="21.2201" gradientUnits="userSpaceOnUse">
<stop stop-color="#100E25"/>
<stop offset="0.845" stop-color="#1E1B3E"/>
</linearGradient>
</defs>
</svg>
